<svg width="34" height="70" viewBox="0 0 34 70" fill="none" xmlns="http://www.w3.org/2000/svg">
<g filter="url(#filter0_d)">
<path d="M29.9913 21.2499C29.9913 21.5622 29.8125 21.9138 29.545 22.1484L12.0006 37.4998L29.545 52.8511C29.8131 53.0857 29.9913 53.4368 29.9913 53.7496C29.9913 54.0624 29.8125 54.4135 29.545 54.6481L27.3131 56.601C27.045 56.8356 26.6438 56.9915 26.2863 56.9915C25.9288 56.9915 25.5275 56.8351 25.2594 56.601L4.45563 38.3977C4.1875 38.1631 4.00938 37.812 4.00938 37.4992C4.00938 37.1864 4.18813 36.8353 4.45563 36.6007L25.2594 18.3974C25.5275 18.1628 25.9288 18.007 26.2863 18.007C26.6438 18.007 27.045 18.1634 27.3131 18.3974L29.545 20.3503C29.8131 20.5849 29.9913 20.8972 29.9913 21.2488V21.2499Z" fill="#666666"/>
</g>
<defs>
<filter id="filter0_d" x="-2" y="0" width="38" height="78" filterUnits="userSpaceOnUse" color-interpolation-filters="sRGB">
<feFlood flood-opacity="0" result="BackgroundImageFix"/>
<feColorMatrix in="SourceAlpha" type="matrix" values="0 0 0 0 0 0 0 0 0 0 0 0 0 0 0 0 0 0 127 0"/>
<feOffset dy="4"/>
<feGaussianBlur stdDeviation="2"/>
<feColorMatrix type="matrix" values="0 0 0 0 0 0 0 0 0 0 0 0 0 0 0 0 0 0 0.25 0"/>
<feBlend mode="normal" in2="BackgroundImageFix" result="effect1_dropShadow"/>
<feBlend mode="normal" in="SourceGraphic" in2="effect1_dropShadow" result="shape"/>
</filter>
</defs>
</svg>
